<svg width="25" height="25" viewBox="0 0 25 25" fill="none" xmlns="http://www.w3.org/2000/svg">
<circle cx="22.0547" cy="3.11572" r="0.75" fill="#000099"/>
<circle cx="18.3047" cy="6.86572" r="0.75" fill="#000099"/>
<circle cx="20.1758" cy="4.98291" r="0.75" fill="#000099"/>
<circle cx="14.0508" cy="11.1157" r="0.75" fill="#000099"/>
<circle cx="10.457" cy="14.7017" r="0.75" fill="#000099"/>
<circle cx="8.65625" cy="16.5063" r="0.75" fill="#000099"/>
<circle cx="6.10547" cy="16.5063" r="0.75" fill="#000099"/>
<circle cx="8.65625" cy="21.6157" r="0.75" transform="rotate(90 8.65625 21.6157)" fill="#000099"/>
<circle cx="3.55469" cy="16.5063" r="0.75" fill="#000099"/>
<circle cx="8.65625" cy="19.0571" r="0.75" transform="rotate(90 8.65625 19.0571)" fill="#000099"/>
<circle cx="12.2539" cy="12.9126" r="0.75" fill="#000099"/>
<circle cx="13.3047" cy="6.86572" r="0.75" fill="#000099"/>
<circle cx="15.8047" cy="6.86572" r="0.75" fill="#000099"/>
<circle cx="10.8047" cy="6.86572" r="0.75" fill="#000099"/>
<circle cx="8.30469" cy="6.86572" r="0.75" fill="#000099"/>
<circle cx="18.3047" cy="9.36572" r="0.75" fill="#000099"/>
<circle cx="18.3047" cy="11.8657" r="0.75" fill="#7E7EC6"/>
<circle cx="18.3047" cy="14.3657" r="0.75" fill="#7E7EC6"/>
<circle cx="18.3047" cy="16.8657" r="0.75" fill="#7E7EC6"/>
<circle cx="15.8047" cy="9.36572" r="0.75" fill="#000099"/>
</svg>
